<svg width="16" height="16" viewBox="0 0 13 12" fill="none" xmlns="http://www.w3.org/2000/svg">
  <mask id="mask0" mask-type="alpha" maskUnits="userSpaceOnUse" x="2" y="2" width="9" height="8">
    <path fill-rule="evenodd" clip-rule="evenodd" d="M7.33822 6L10.4316 2.90667C10.6449 2.69333 10.6449 2.37333 10.4316 2.16C10.2182 1.94667 9.89822 1.94667 9.68489 2.16L6.59155 5.25333L3.49822 2.16C3.28489 1.94667 2.96489 1.94667 2.75155 2.16C2.53822 2.37333 2.53822 2.69333 2.75155 2.90667L5.84489 6L2.75155 9.09333C2.53822 9.30667 2.53822 9.62667 2.75155 9.84C2.85822 9.94667 2.99155 10 3.12489 10C3.25822 10 3.39155 9.94667 3.49822 9.84L6.59155 6.74667L9.68489 9.84C9.79155 9.94667 9.92489 10 10.0582 10C10.1916 10 10.3249 9.94667 10.4316 9.84C10.6449 9.62667 10.6449 9.30667 10.4316 9.09333L7.33822 6Z" fill="white"/>
  </mask>
  <g mask="url(#mask0)">
    <rect x="0.591553" width="12" height="12" fill="#1A1818"/>
  </g>
</svg>
